<?xml version="1.0" encoding="utf-8"?>
<!-- Generator: Adobe Illustrator 18.0.0, SVG Export Plug-In . SVG Version: 6.00 Build 0)  -->
<!DOCTYPE svg PUBLIC "-//W3C//DTD SVG 1.1//EN" "http://www.w3.org/Graphics/SVG/1.1/DTD/svg11.dtd">
<svg version="1.1" id="Layer_1" xmlns="http://www.w3.org/2000/svg" xmlns:xlink="http://www.w3.org/1999/xlink" x="0px" y="0px"
	 viewBox="0 0 993 268.8" enable-background="new 0 0 993 268.8" xml:space="preserve">
<g>
	<path fill="#808285" d="M327.8,35.7c13.2-5,26.6-7.4,41.5-7.4c37.6,0,71.3,17.3,93.3,44.4c2.9,3.6,4.8,8.2,4.8,13.1
		c0,6.8-3,12.5-8.1,16.2l-0.2,0.4c-3.4,2.5-7.8,4-12.4,4c-6.5,0-12.3-3-16.1-7.7c-4.5-5.5-9.6-10.3-15.4-14.5
		c-12.9-9.2-28.8-14.7-45.9-14.7c-9.8,0-18.6,1.7-27.3,4.9c-16.4,6.2-30.6,17.8-39.8,32.5c-7.4,12-11.8,26.2-11.8,41.3
		c0,11.1,2.4,21.6,6.6,31.2c5.5,12.8,14.2,23.9,25.2,32.1c13.1,9.8,29.4,15.6,47.1,15.6c24.6,0,46.9-11.7,61.3-29.4
		c3.8-4.8,9.6-7.9,16.2-7.9c11.4,0,20.7,9.3,20.7,20.7c0,4.9-1.7,9.4-4.6,13c-22,27.4-55.7,44.9-93.6,44.9
		c-66.3,0-120.2-53.8-120.2-120.3c0-23.4,6.8-45.3,18.4-63.8C281.4,62.5,303.1,45.1,327.8,35.7"/>
	<path fill="#808285" d="M576.5,35.9c13.2-5,26.6-7.4,41.5-7.4c37.7,0,71.3,17.3,93.3,44.5c2.8,3.6,4.7,8.1,4.7,13.1
		c0,6.8-3,12.4-8,16.2l-0.2,0.4c-3.5,2.5-7.8,4-12.4,4c-6.5,0-12.3-3-16.1-7.7c-4.5-5.5-9.6-10.3-15.4-14.4
		c-12.9-9.3-28.8-14.7-46-14.7c-9.8,0-18.6,1.7-27.2,5c-16.4,6.2-30.7,17.7-39.8,32.5c-7.4,12-11.8,26.2-11.8,41.4
		c0,11,2.5,21.5,6.6,31.1c5.5,12.8,14.1,23.9,25.2,32.1c13.1,9.9,29.4,15.6,47,15.6c24.7,0,46.9-11.7,61.4-29.4
		c3.8-4.8,9.6-7.9,16.2-7.9c11.5,0,20.7,9.3,20.7,20.7c0,4.9-1.7,9.5-4.6,13c-22,27.4-55.7,45-93.6,45
		c-66.3,0-120.2-53.8-120.2-120.1c0-23.5,6.8-45.5,18.4-64C530.2,62.6,551.8,45.2,576.5,35.9"/>
	<path fill="#808285" d="M773.6,223.7c22,27.4,55.7,44.9,93.7,44.9c66.3,0,120.1-53.8,120.1-120.3c0-23.4-6.7-45.3-18.3-63.8
		c-3.7-5.8-10.2-9.8-17.6-9.8c-11.4,0-20.6,9.3-20.6,20.7c0,4.1,1.5,8.5,3.5,11.7c7.5,12,11.8,26.2,11.8,41.3
		c0,11.1-2.4,21.6-6.6,31.2c-5.5,12.8-14.2,23.9-25.1,32.1c-13.2,9.8-29.5,15.6-47.1,15.6c-24.7,0-47-11.7-61.4-29.4
		c-11.1-13.6-17.5-30.5-17.5-49.5c0-26.3,13-49.7,32.9-64c12.9-9.2,28.8-14.7,46-14.7c9.7,0,18.6,1.7,27.3,4.9
		c2.2,0.8,4.6,1.2,7,1.2c11.4,0,20.7-9.3,20.7-20.7c0-8.9-5.6-16.5-13.5-19.4c-13.1-5-26.6-7.4-41.5-7.4
		c-37.7,0-71.4,17.3-93.5,44.4c-16.8,20.7-26.8,47-26.8,75.6C747,176.9,757,203.1,773.6,223.7"/>
	<path fill="#808285" d="M79.5,35.7C71.7,38.7,66,46.3,66,55.2c0,11.4,9.2,20.7,20.7,20.7c2.5,0,4.9-0.5,7-1.3
		c8.7-3.3,17.6-4.9,27.4-4.9c17,0,33.1,5.8,46.1,15.1L48.8,179.6c-4.1-9.6-6.5-20.1-6.5-31c0-15.3,4.3-29.4,11.7-41.5
		c2-3.2,3.5-7.6,3.5-11.7c0-11.4-9.2-20.7-20.7-20.7c-7.4,0-13.9,4-17.5,9.8C7.7,103.1,0.9,125,0.9,148.6
		c0,66.3,53.8,120.1,120.2,120.1c37.9,0,71.6-17.5,93.6-45c2.9-3.5,4.6-8.1,4.6-13c0-11.5-9.3-20.7-20.7-20.7
		c-6.5,0-12.4,3-16.2,7.8c-14.5,17.7-36.7,29.4-61.3,29.4c-17.7,0-33.9-5.9-47-15.7L211,102.1c5.1-3.8,8.2-9.4,8.2-16.2
		c0-4.9-1.9-9.6-4.8-13.1c-22-27.2-55.7-44.5-93.3-44.5C106.1,28.3,92.7,30.8,79.5,35.7"/>
	<path fill="#808285" d="M941.6,25.7c0,14.2,11.5,25.7,25.7,25.7c14.2,0,25.7-11.5,25.7-25.7C993,11.5,981.5,0,967.3,0
		C953.1,0,941.6,11.5,941.6,25.7L941.6,25.7z M946.6,25.7c0-11.4,9.3-20.7,20.8-20.7c11.4,0,20.7,9.3,20.7,20.7
		c0,11.4-9.3,20.7-20.7,20.7C955.9,46.4,946.6,37.1,946.6,25.7"/>
	<path fill="#808285" d="M964.2,23.9h1.7c2.5,0,5.4-0.4,5.4-3.6c0-3.1-2.9-3.3-5.4-3.3h-1.7V23.9L964.2,23.9z M959.1,13h5.5
		c5.5,0,12-0.2,12,6.9c0,3-2,5.5-5.3,5.9v0.1c1.5,0.1,2.2,1.5,2.7,2.6l4.1,9.9h-5.7l-3.1-8c-0.7-1.9-1.3-2.6-3.5-2.6h-1.6v10.6h-5.1
		V13"/>
</g>
</svg>
